HIERARCHY
ROOT Hips
{
 OFFSET 0.000000 0.000000 0.000000
 CHANNELS 6 Xposition Yposition Zposition Yrotation Xrotation Zrotation
 JOINT Chest
 {
  OFFSET 0.000000 9.588913 -0.003946
  CHANNELS 3 Yrotation Xrotation Zrotation
  JOINT Chest2
  {
   OFFSET 0.000000 9.541882 0.008053
   CHANNELS 3 Yrotation Xrotation Zrotation
   JOINT Chest3
   {
    OFFSET 0.000000 9.501360 0.000000
    CHANNELS 3 Yrotation Xrotation Zrotation
    JOINT Chest4
    {
     OFFSET 0.000000 9.491660 0.000000
     CHANNELS 3 Yrotation Xrotation Zrotation
     JOINT Neck
     {
      OFFSET 0.000000 14.331917 0.000000
      CHANNELS 3 Yrotation Xrotation Zrotation
      JOINT Head
      {
       OFFSET 0.000000 8.884799 0.017034
       CHANNELS 3 Yrotation Xrotation Zrotation
       End Site
       {
        OFFSET 0.000000 16.896195 0.008993
       }
      }
     }
     JOINT RightCollar
     {
      OFFSET -2.923010 9.499495 0.000000
      CHANNELS 3 Yrotation Xrotation Zrotation
      JOINT RightShoulder
      {
       OFFSET -13.795216 0.000000 0.000000
       CHANNELS 3 Yrotation Xrotation Zrotation
       JOINT RightElbow
       {
        OFFSET -30.272209 0.000000 0.000000
        CHANNELS 3 Yrotation Xrotation Zrotation
        JOINT RightWrist
        {
         OFFSET -24.478199 0.000000 0.000000
         CHANNELS 3 Yrotation Xrotation Zrotation
         End Site
         {
          OFFSET -18.090752 0.000000 0.000000
         }
        }
       }
      }
     }
     JOINT LeftCollar
     {
      OFFSET 2.923010 9.499495 0.000000
      CHANNELS 3 Yrotation Xrotation Zrotation
      JOINT LeftShoulder
      {
       OFFSET 13.795216 0.000000 0.000000
       CHANNELS 3 Yrotation Xrotation Zrotation
       JOINT LeftElbow
       {
        OFFSET 30.272209 0.000000 0.000000
        CHANNELS 3 Yrotation Xrotation Zrotation
        JOINT LeftWrist
        {
         OFFSET 24.478199 0.000000 0.000000
         CHANNELS 3 Yrotation Xrotation Zrotation
         End Site
         {
          OFFSET 18.090752 0.000000 0.000000
         }
        }
       }
      }
     }
    }
   }
  }
 }
 JOINT RightHip
 {
  OFFSET -7.826875 0.019532 0.001973
  CHANNELS 3 Yrotation Xrotation Zrotation
  JOINT RightKnee
  {
   OFFSET 0.000000 -40.546152 -0.001885
   CHANNELS 3 Yrotation Xrotation Zrotation
   JOINT RightAnkle
   {
    OFFSET 0.000000 -39.417092 -0.003189
    CHANNELS 3 Yrotation Xrotation Zrotation
    JOINT RightToe
    {
     OFFSET 0.000000 -7.579396 17.243563
     CHANNELS 3 Yrotation Xrotation Zrotation
     End Site
     {
      OFFSET 0.000000 -1.500329 6.694466
     }
    }
   }
  }
 }
 JOINT LeftHip
 {
  OFFSET 7.826875 0.019532 0.001973
  CHANNELS 3 Yrotation Xrotation Zrotation
  JOINT LeftKnee
  {
   OFFSET 0.000000 -40.546152 -0.001885
   CHANNELS 3 Yrotation Xrotation Zrotation
   JOINT LeftAnkle
   {
    OFFSET 0.000000 -39.417092 -0.003189
    CHANNELS 3 Yrotation Xrotation Zrotation
    JOINT LeftToe
    {
     OFFSET 0.000000 -7.579396 17.243563
     CHANNELS 3 Yrotation Xrotation Zrotation
     End Site
     {
      OFFSET 0.000000 -1.500329 6.694466
     }
    }
   }
  }
 }
}
MOTION
Frames: 13
Frame Time: 0.008333
0.000000 87.345680 0.000000 0.000000 -5.767889 0.000000 0.000000 11.653876 0.000000 0.000000 -5.885988 0.000000 0.000000 -0.000000 0.000000 0.000000 -0.000000 0.000000 0.000000 12.528808 0.000000 0.000000 0.711711 0.000000 0.000000 -0.000000 0.000000 0.000000 -0.000000 0.000000 2.309063 -0.000000 0.000000 -2.309063 -0.000000 -0.000000 0.000000 -0.000000 0.000000 0.000000 0.000000 0.000000 -2.309063 0.000000 0.000000 2.309063 -0.000000 0.000000 0.000000 8.520374 0.000000 0.000000 1.905768 0.000000 -0.000000 -4.658254 0.000000 0.000000 -0.000000 0.000000 0.000000 8.520374 0.000000 0.000000 1.905768 0.000000 -0.000000 -4.658254 0.000000 0.000000 -0.000000 0.000000
-0.834133 88.953833 -11.635621 128.293649 -8.070285 3.556055 -0.108471 4.130880 1.480896 0.068602 2.500609 0.693778 0.090510 3.125617 0.867898 0.068602 2.500610 0.693779 -5.723704 26.316166 -5.078641 -5.154658 3.260765 -4.295945 0.286932 1.795051 -2.766863 -3.025202 -1.202762 86.248749 0.551193 1.472004 0.507039 0.004857 -2.397054 0.205439 1.108936 2.179684 -2.429828 3.572086 -3.997404 -92.028204 -4.858415 3.355063 -2.361714 -3.601252 0.609000 3.550998 -5.733837 8.173264 -6.417362 -0.363441 0.790378 0.219663 -3.958369 -3.787543 0.756473 -0.020759 0.798719 0.055131 14.404569 0.954442 5.372535 6.712901 10.803192 4.298433 6.153711 -2.836662 -11.723638 0.146166 0.668749 0.767496
-0.863908 88.999541 -11.673224 128.378230 -8.152124 3.583817 -0.007084 4.214155 1.461553 0.080629 2.500935 0.698275 0.105579 3.126001 0.873603 0.080629 2.500936 0.698276 -5.594772 26.348783 -5.038618 -5.020341 3.293900 -4.280136 0.285878 1.738404 -2.766373 -2.977627 -1.171590 86.138162 0.523653 1.512666 0.496488 -0.022324 -2.382730 0.221681 1.104628 2.201528 -2.422533 3.654022 -3.992349 -92.038305 -4.877908 3.265631 -2.422412 -3.674019 0.541874 3.596447 -5.710240 8.277631 -6.468604 -0.417157 0.741290 0.190194 -4.015509 -3.630958 0.795375 -0.019295 0.672335 0.050221 14.819003 1.016420 5.267284 6.657452 11.059896 4.425960 6.064230 -3.139785 -11.785581 0.144616 0.594239 0.678145
-0.905871 89.049755 -11.712111 128.523423 -8.182760 3.606534 0.039949 4.238876 1.433289 0.090724 2.500285 0.703844 0.118237 3.125167 0.880635 0.090724 2.500285 0.703844 -5.476870 26.378971 -4.998541 -4.898381 3.324693 -4.261874 0.283428 1.692155 -2.765297 -2.948802 -1.152457 86.024367 0.498286 1.553730 0.484445 -0.046188 -2.371442 0.229275 1.102790 2.221197 -2.418971 3.729361 -3.987094 -92.046347 -4.885430 3.153615 -2.484213 -3.747443 0.463021 3.636679 -5.756888 8.323921 -6.525288 -0.464175 0.695513 0.160995 -4.067149 -3.488545 0.838840 -0.016789 0.559359 0.047025 15.126539 1.051616 5.143790 6.549149 11.330634 4.532957 6.006790 -3.470056 -11.766489 0.144532 0.523641 0.541203
-0.950532 89.103163 -11.758222 128.672845 -8.216842 3.631620 0.082628 4.260781 1.396894 0.098193 2.498642 0.709614 0.127612 3.123097 0.887898 0.098193 2.498642 0.709614 -5.367041 26.407599 -4.956194 -4.785964 3.353971 -4.239347 0.282806 1.655967 -2.763717 -2.937811 -1.141498 85.910484 0.474417 1.590867 0.469400 -0.062515 -2.361175 0.229775 1.105862 2.239766 -2.415918 3.798226 -3.982096 -92.053725 -4.879178 3.018624 -2.547320 -3.815531 0.381091 3.669943 -5.818874 8.369170 -6.594782 -0.507376 0.654131 0.136791 -4.112219 -3.321831 0.884466 -0.013065 0.421008 0.045429 15.366876 1.110345 5.021889 6.415322 11.620930 4.615203 5.989594 -3.774248 -11.691085 0.138109 0.416469 0.386952
-0.998612 89.156248 -11.806764 128.854038 -8.226458 3.642024 0.092157 4.250280 1.366612 0.102768 2.495909 0.715189 0.133364 3.119671 0.894899 0.102768 2.495909 0.715189 -5.261747 26.434887 -4.910683 -4.679332 3.381788 -4.212334 0.286980 1.627538 -2.764662 -2.938686 -1.135448 85.799129 0.450894 1.618415 0.450398 -0.068849 -2.357243 0.224856 1.116574 2.255429 -2.411706 3.864679 -3.974848 -92.065404 -4.856297 2.862014 -2.606693 -3.876937 0.303394 3.690867 -5.915665 8.388772 -6.658721 -0.549564 0.620258 0.120039 -4.151427 -3.187155 0.928718 -0.009841 0.307269 0.044998 15.514214 1.157619 4.907401 6.271520 11.929976 4.674122 6.002010 -4.078058 -11.605288 0.146800 0.306300 0.257667
-1.045850 89.207401 -11.860485 129.037693 -8.234208 3.643528 0.094210 4.234426 1.342236 0.104517 2.491838 0.720778 0.135582 3.114577 0.901897 0.104517 2.491838 0.720778 -5.159744 26.459746 -4.862590 -4.576944 3.406718 -4.181724 0.298410 1.602516 -2.771576 -2.950569 -1.131819 85.692130 0.428905 1.631089 0.426388 -0.067435 -2.359818 0.219338 1.136168 2.267626 -2.409346 3.930518 -3.963693 -92.081019 -4.822772 2.693021 -2.660100 -3.924971 0.228047 3.692064 -6.017729 8.407056 -6.718564 -0.588914 0.592126 0.106697 -4.190961 -3.061936 0.974205 -0.006621 0.197898 0.044851 15.599220 1.214536 4.803352 6.127003 12.256956 4.712626 6.053407 -4.358866 -11.532783 0.157121 0.179490 0.167484
-1.091376 89.254998 -11.919036 129.221731 -8.238532 3.633744 0.091610 4.214292 1.324463 0.104326 2.486214 0.726343 0.135369 3.107545 0.908851 0.104326 2.486214 0.726343 -5.061177 26.481905 -4.809713 -4.479430 3.428329 -4.145036 0.316223 1.576527 -2.781884 -2.976377 -1.127486 85.591375 0.410208 1.628062 0.397001 -0.058573 -2.365485 0.213083 1.162376 2.276974 -2.408303 3.997842 -3.948847 -92.097715 -4.785177 2.519811 -2.710845 -3.952218 0.159405 3.677297 -6.117105 8.423406 -6.767598 -0.625229 0.570817 0.091615 -4.236696 -2.949928 1.024475 -0.003497 0.095971 0.043865 15.630030 1.276768 4.707495 5.994669 12.598230 4.739244 6.137216 -4.615594 -11.488642 0.164579 0.040686 0.119550
-1.134718 89.298058 -11.982477 129.399662 -8.238627 3.612257 0.088326 4.191163 1.310832 0.103913 2.478873 0.731760 0.134875 3.098368 0.915617 0.103913 2.478873 0.731760 -4.965999 26.501707 -4.750459 -4.387093 3.446979 -4.100522 0.337506 1.548651 -2.790948 -3.014635 -1.121725 85.496283 0.396769 1.610376 0.365978 -0.043983 -2.376605 0.200755 1.193759 2.282630 -2.404559 4.068765 -3.930802 -92.116152 -4.742496 2.347224 -2.760544 -3.959739 0.101311 3.651982 -6.204012 8.437255 -6.803485 -0.662466 0.557596 0.073335 -4.285539 -2.853604 1.080506 -0.000435 0.003297 0.042170 15.622689 1.345177 4.616839 5.889745 12.945374 4.763043 6.235121 -4.850288 -11.473033 0.165832 -0.104218 0.104766
-1.175677 89.336179 -12.051897 129.568229 -8.237395 3.582740 0.086755 4.166904 1.297451 0.104048 2.470125 0.736775 0.135060 3.087431 0.921884 0.104048 2.470125 0.736775 -4.874462 26.519888 -4.685168 -4.300153 3.463614 -4.048523 0.358774 1.522375 -2.795782 -3.060669 -1.118416 85.403890 0.387005 1.578660 0.334387 -0.027662 -2.391709 0.184693 1.227810 2.282942 -2.397503 4.143171 -3.907706 -92.134226 -4.694448 2.181177 -2.809357 -3.948142 0.048001 3.615954 -6.281743 8.451973 -6.831482 -0.700407 0.550893 0.051440 -4.329572 -2.774229 1.143023 0.003104 -0.078725 0.040287 15.589529 1.426937 4.527334 5.825741 13.288740 4.789425 6.321378 -5.065746 -11.473345 0.160051 -0.249762 0.107144
-1.214608 89.369224 -12.128491 129.729398 -8.236538 3.550267 0.085622 4.140926 1.277907 0.105375 2.460519 0.740943 0.136727 3.075419 0.927100 0.105376 2.460519 0.740943 -4.786148 26.537575 -4.610995 -4.218794 3.479530 -3.986006 0.377028 1.500727 -2.793869 -3.111208 -1.122927 85.314847 0.375072 1.535728 0.300635 -0.009455 -2.408251 0.168922 1.258266 2.276998 -2.384111 4.221161 -3.878184 -92.151110 -4.642377 2.024934 -2.855983 -3.919835 0.001827 3.570270 -6.361426 8.467852 -6.859646 -0.736853 0.551424 0.027218 -4.363632 -2.714024 1.211072 0.007188 -0.148873 0.039112 15.535244 1.529316 4.433160 5.810713 13.616033 4.820697 6.377322 -5.262570 -11.473104 0.146517 -0.389004 0.111859
-1.251692 89.397194 -12.213163 129.878275 -8.237749 3.519139 0.087717 4.115022 1.246196 0.109085 2.449745 0.744630 0.141368 3.061943 0.931730 0.109085 2.449745 0.744630 -4.699512 26.555951 -4.525567 -4.141853 3.496078 -3.910714 0.389797 1.482674 -2.785618 -3.164969 -1.132751 85.230812 0.362451 1.485060 0.265857 0.011295 -2.425035 0.153590 1.281135 2.267561 -2.360569 4.300564 -3.843473 -92.169935 -4.586701 1.881611 -2.895599 -3.879895 -0.030606 3.518790 -6.442756 8.485155 -6.893195 -0.769527 0.560481 0.003605 -4.390937 -2.674204 1.280725 0.011341 -0.206240 0.040090 15.475513 1.658205 4.331260 5.838600 13.919725 4.853202 6.406930 -5.445592 -11.457043 0.123924 -0.511031 0.109285
-1.285982 89.420228 -12.306403 130.009286 -8.247267 3.488248 0.097723 4.095242 1.204449 0.114713 2.437890 0.748395 0.148406 3.047111 0.936468 0.114714 2.437890 0.748394 -4.612971 26.574362 -4.430006 -4.067315 3.512429 -3.824239 0.395327 1.463290 -2.774677 -3.220787 -1.140875 85.152687 0.352828 1.430332 0.232057 0.032694 -2.439549 0.138333 1.299168 2.256449 -2.329971 4.376977 -3.804179 -92.189852 -4.528755 1.755853 -2.927027 -3.829943 -0.049482 3.468336 -6.519222 8.511212 -6.930932 -0.795642 0.577214 -0.017899 -4.416736 -2.653013 1.348708 0.015617 -0.251883 0.044389 15.439386 1.818129 4.228786 5.889342 14.202307 4.879188 6.415960 -5.630780 -11.400380 0.091694 -0.603594 0.084102
